<?xml version="1.0" encoding="UTF-8" standalone="no"?>
<!-- Created with Inkscape (http://www.inkscape.org/) -->

<svg
   version="1.1"
   id="svg2"
   xml:space="preserve"
   width="666.66669"
   height="203.8"
   viewBox="0 0 666.66669 203.8"
   sodipodi:docname="Boolean Systems.eps"
   xmlns:inkscape="http://www.inkscape.org/namespaces/inkscape"
   xmlns:sodipodi="http://sodipodi.sourceforge.net/DTD/sodipodi-0.dtd"
   xmlns="http://www.w3.org/2000/svg"
   xmlns:svg="http://www.w3.org/2000/svg"><defs
     id="defs6" /><sodipodi:namedview
     id="namedview4"
     pagecolor="#ffffff"
     bordercolor="#666666"
     borderopacity="1.0"
     inkscape:pageshadow="2"
     inkscape:pageopacity="0.0"
     inkscape:pagecheckerboard="0" /><g
     id="g8"
     inkscape:groupmode="layer"
     inkscape:label="ink_ext_XXXXXX"
     transform="matrix(1.3333333,0,0,-1.3333333,0,203.8)"><g
       id="g10"
       transform="scale(0.1)"><path
         d="M 732.004,535.281 C 695.277,509.73 650.707,496.23 603.109,496.23 H 170.344 v 614.3 h 149.64 c -6.468,15.12 -10.074,31.76 -10.074,49.25 0,17.83 3.778,34.76 10.488,50.11 H 70.9805 V 396.859 H 603.109 c 67.977,0 132.172,19.661 185.657,56.86 94.957,66.09 133.797,171.09 109.359,295.625 l -0.082,0.496 c -0.078,0.574 -0.184,1.293 -0.281,1.973 -22.793,-23.672 -54.746,-38.465 -90.207,-38.465 -1.399,0 -2.758,0.164 -4.145,0.211 11.18,-78.672 -12.246,-137.133 -71.406,-178.278"
         style="fill:#5dc695;fill-opacity:1;fill-rule:nonzero;stroke:none"
         id="path12" /><path
         d="m 493.77,1341.68 c 79.332,-25.95 132.125,-98.8 132.125,-181.47 0,-81.16 -51.356,-153.34 -127.965,-180.147 l -1.094,-0.973 -2.09,-0.031 c -13.047,-3.469 -27.398,-5.618 -41.277,-7.7 l -11.5,-1.746 c -55.598,-8.84 -111.098,-26.246 -140.074,-93.09 -20.622,-47.488 -20.2,-102.16 1.168,-150 21.402,-47.902 61.8,-84.734 110.839,-101.031 3.121,-1.054 11.461,-3.316 18.645,-5.226 -10.09,18.058 -15.895,38.836 -15.895,60.992 0,16.801 3.364,32.801 9.36,47.441 -0.485,0.192 -0.836,0.41 -1.227,0.668 -11.805,7.817 -24.57,23.309 -31.019,37.68 -10.164,22.82 -10.422,47.648 -0.743,69.93 10.161,23.421 24.317,28.476 75.192,36.132 16.094,2.422 34.332,5.149 52.598,10.079 102.906,27.789 186.687,116.035 203.726,214.592 27.828,160.74 -40.992,248.47 -103.621,293.77 -49.023,35.44 -107.996,54.18 -170.547,54.18 H 243.027 c 4.821,-13.32 7.582,-27.61 7.582,-42.59 0,-20.46 -5.007,-39.71 -13.707,-56.77 h 213.469 c 14.926,0 29.524,-1.58 43.399,-4.69"
         style="fill:#2f2c7e;fill-opacity:1;fill-rule:nonzero;stroke:none"
         id="path14" /><path
         d="m 602.07,152.59 c -31.183,13.371 -54.894,20.519 -54.894,40.57 0,18.141 18.777,32.77 42.328,32.77 18.613,0 36.273,-9.7 44.23,-27.039 l 29.914,20.691 c -10.503,28.156 -37.871,45.816 -74.464,45.816 -46.141,0 -82.579,-29.277 -82.579,-71.289 0,-40.25 33.415,-55.839 63.485,-69.211 29.914,-12.886 63.644,-27.2066 63.644,-50.9175 0,-19.5703 -21.796,-33.4102 -50.597,-33.4102 -24.66,0 -45.981,11.461 -57.438,31.5 L 493.875,49.3281 C 508.516,19.7305 540.496,0 582.66,0 c 52.031,0 91.492,29.2813 91.492,74.7813 0,40.4177 -31.504,59.9887 -72.082,77.8087"
         style="fill:#2f2c7e;fill-opacity:1;fill-rule:nonzero;stroke:none"
         id="path16" /><path
         d="m 1200.5,158.641 -59.66,102.14 h -45.35 l 85.12,-146.859 V 4.30078 h 39.94 V 113.922 l 85.13,146.859 h -45.35 l -59.83,-102.14"
         style="fill:#2f2c7e;fill-opacity:1;fill-rule:nonzero;stroke:none"
         id="path18" /><path
         d="m 1851.29,152.59 c -31.19,13.371 -54.9,20.519 -54.9,40.57 0,18.141 18.78,32.77 42.33,32.77 18.61,0 36.27,-9.7 44.23,-27.039 l 29.91,20.691 c -10.5,28.156 -37.87,45.816 -74.46,45.816 -46.14,0 -82.58,-29.277 -82.58,-71.289 0,-40.25 33.41,-55.839 63.48,-69.211 29.91,-12.886 63.65,-27.2066 63.65,-50.9175 0,-19.5703 -21.8,-33.4102 -50.6,-33.4102 -24.66,0 -45.99,11.461 -57.44,31.5 L 1743.09,49.3281 C 1757.72,19.7305 1789.71,0 1831.88,0 c 52.03,0 91.48,29.2813 91.48,74.7813 0,40.4177 -31.5,59.9887 -72.07,77.8087"
         style="fill:#2f2c7e;fill-opacity:1;fill-rule:nonzero;stroke:none"
         id="path20" /><path
         d="m 2364.43,220.852 h 68.73 V 4.30078 h 40.42 V 220.852 h 68.73 v 39.929 h -177.88 v -39.929"
         style="fill:#2f2c7e;fill-opacity:1;fill-rule:nonzero;stroke:none"
         id="path22" /><path
         d="m 2998.03,4.30078 h 152.75 V 44.3906 h -112.49 v 70.9684 h 97.05 v 40.09 h -97.05 v 65.711 h 112.49 v 39.621 H 2998.03 V 4.30078"
         style="fill:#2f2c7e;fill-opacity:1;fill-rule:nonzero;stroke:none"
         id="path24" /><path
         d="M 3742.04,79.8789 3619.37,266.352 h -3.02 V 4.30078 h 40.25 V 146.699 L 3741.88,8.58984 h 0.33 L 3827.33,146.539 V 4.30078 h 40.25 V 266.352 h -3.02 L 3742.04,79.8789"
         style="fill:#2f2c7e;fill-opacity:1;fill-rule:nonzero;stroke:none"
         id="path26" /><path
         d="m 4434.05,152.59 c -31.18,13.371 -54.89,20.519 -54.89,40.57 0,18.141 18.78,32.77 42.32,32.77 18.62,0 36.28,-9.7 44.24,-27.039 l 29.91,20.691 c -10.5,28.156 -37.87,45.816 -74.46,45.816 -46.15,0 -82.59,-29.277 -82.59,-71.289 0,-40.25 33.41,-55.839 63.49,-69.211 29.91,-12.886 63.65,-27.2066 63.65,-50.9175 0,-19.5703 -21.8,-33.4102 -50.6,-33.4102 -24.67,0 -45.99,11.461 -57.44,31.5 L 4325.86,49.3281 C 4340.49,19.7305 4372.48,0 4414.64,0 c 52.03,0 91.49,29.2813 91.49,74.7813 0,40.4177 -31.51,59.9887 -72.08,77.8087"
         style="fill:#2f2c7e;fill-opacity:1;fill-rule:nonzero;stroke:none"
         id="path28" /><path
         d="m 1368.77,491.109 c -141.53,0 -256.79,115.258 -256.79,256.344 0,141.969 115.26,257.677 256.79,257.677 141.53,0 257.68,-115.708 257.68,-257.677 0,-141.086 -116.15,-256.344 -257.68,-256.344 z m 0.44,627.511 c -204.27,0 -370.722,-167.339 -370.722,-372.061 0,-202.946 166.452,-369.387 370.282,-369.387 204.27,0 371.62,166.441 371.62,369.387 0,204.722 -167.35,372.061 -371.18,372.061"
         style="fill:#5dc695;fill-opacity:1;fill-rule:nonzero;stroke:none"
         id="path30" /><path
         d="m 2179.57,491.109 c -141.53,0 -256.8,115.258 -256.8,256.344 0,141.969 115.27,257.677 256.8,257.677 141.52,0 257.67,-115.708 257.67,-257.677 0,-141.086 -116.15,-256.344 -257.67,-256.344 z m 0.44,627.511 c -204.27,0 -370.72,-167.339 -370.72,-372.061 0,-202.946 166.45,-369.387 370.28,-369.387 204.27,0 371.6,166.441 371.6,369.387 0,204.722 -167.33,372.061 -371.16,372.061"
         style="fill:#5dc695;fill-opacity:1;fill-rule:nonzero;stroke:none"
         id="path32" /><path
         d="m 3086.93,500.898 h -319.99 v 605.262 h -112.6 V 388.738 h 432.59 v 112.16"
         style="fill:#5dc695;fill-opacity:1;fill-rule:nonzero;stroke:none"
         id="path34" /><path
         d="m 3176.78,388.738 h 427.24 v 112.16 h -314.65 v 198.485 h 271.48 V 811.539 H 3289.37 V 995.34 h 314.65 v 110.82 H 3176.78 V 388.738"
         style="fill:#5dc695;fill-opacity:1;fill-rule:nonzero;stroke:none"
         id="path36" /><path
         d="m 3876.78,594.355 126.39,280.383 125.95,-280.383 z m 129.5,526.495 h -6.67 L 3662.26,388.738 h 121.95 l 48.95,109.043 h 339.57 l 48.96,-109.043 h 121.94 l -337.35,732.112"
         style="fill:#5dc695;fill-opacity:1;fill-rule:nonzero;stroke:none"
         id="path38" /><path
         d="M 4886.96,1107.93 V 640.191 L 4429,1118.62 h -5.78 V 387.859 h 112.59 v 467.739 l 458.85,-479.317 h 5.34 v 731.649 h -113.04"
         style="fill:#5dc695;fill-opacity:1;fill-rule:nonzero;stroke:none"
         id="path40" /><path
         d="m 43.6602,1336.82 21.5898,21.59 c -9.3398,12.5 -14.9453,27.96 -14.9453,44.73 0,16.92 5.6953,32.49 15.1758,45.05 l -21.4766,21.7 15.3906,15.24 21.4766,-21.7 c 12.457,9.2 27.7929,14.71 44.4339,14.71 16.777,0 32.23,-5.6 44.738,-14.94 l 21.59,21.59 15.308,-15.31 -21.586,-21.59 c 9.344,-12.51 14.95,-27.96 14.95,-44.75 0,-16.91 -5.696,-32.48 -15.176,-45.04 l 21.476,-21.7 -15.39,-15.23 -21.481,21.69 c -12.453,-9.2 -27.789,-14.72 -44.429,-14.72 -16.778,0 -32.2347,5.61 -44.7425,14.96 l -21.5898,-21.6 z m 183.3318,-6.7 c 3.699,5.15 7.016,10.56 9.91,16.25 8.7,17.06 13.707,36.31 13.707,56.77 0,14.98 -2.761,29.27 -7.582,42.59 -2.023,5.59 -4.339,11.04 -7.105,16.24 -21.074,39.54 -62.684,66.48 -110.617,66.48 C 56.1016,1528.45 0,1472.35 0,1403.14 c 0,-69.2 56.1016,-125.3 125.305,-125.3 41.922,0 78.941,20.67 101.687,52.28"
         style="fill:#2f2c7e;fill-opacity:1;fill-rule:nonzero;stroke:none"
         id="path42" /><path
         d="m 530.227,1207.65 -23.981,-23.98 c 2.535,-7.51 3.969,-15.53 3.969,-23.89 0,-41.35 -33.645,-75 -75,-75 -41.356,0 -75,33.65 -75,75 0,41.36 33.644,75 75,75 24.887,0 46.918,-12.23 60.566,-30.95 l 19.133,19.13 z m -209.829,2.24 c -6.71,-15.35 -10.488,-32.28 -10.488,-50.11 0,-17.49 3.606,-34.13 10.074,-49.25 2.426,-5.66 5.356,-11.05 8.551,-16.24 22.051,-35.84 61.516,-59.81 106.68,-59.81 69.203,0 125.301,56.1 125.301,125.3 0,69.2 -56.098,125.31 -125.301,125.31 -44.805,0 -84.008,-23.59 -106.16,-58.96 -3.246,-5.18 -6.184,-10.58 -8.657,-16.24"
         style="fill:#5dc695;fill-opacity:1;fill-rule:nonzero;stroke:none"
         id="path44" /><path
         d="m 460.656,748 15.391,15.238 21.48,-21.699 c 12.453,9.203 27.789,14.719 44.43,14.719 16.777,0 32.231,-5.606 44.738,-14.945 l 21.59,21.589 15.313,-15.312 -21.59,-21.59 c 9.344,-12.508 14.949,-27.965 14.949,-44.742 0,-16.91 -5.691,-32.485 -15.176,-45.043 l 21.481,-21.695 -15.395,-15.239 -21.476,21.696 c -12.453,-9.204 -27.793,-14.719 -44.434,-14.719 -16.777,0 -32.23,5.605 -44.738,14.949 l -21.59,-21.59 -15.313,15.313 21.59,21.59 c -9.343,12.507 -14.949,27.96 -14.949,44.738 0,16.914 5.695,32.484 15.176,45.043 z m -34.644,-19.301 c -5.996,-14.64 -9.36,-30.64 -9.36,-47.441 0,-22.156 5.805,-42.934 15.895,-60.992 3.687,-6.602 7.906,-12.868 12.683,-18.664 22.985,-27.875 57.778,-45.649 96.727,-45.649 69.203,0 125.305,56.102 125.305,125.305 0,69.203 -56.102,125.305 -125.305,125.305 -46.324,0 -86.68,-25.208 -108.363,-62.59 -2.844,-4.903 -5.41,-9.977 -7.582,-15.274"
         style="fill:#2f2c7e;fill-opacity:1;fill-rule:nonzero;stroke:none"
         id="path46" /><path
         d="m 125.344,1418.5 15.234,-15.39 44.777,44.78 21.586,21.59 -15.308,15.31 -21.59,-21.59 -44.699,-44.7"
         style="fill:#2f2c7e;fill-opacity:1;fill-rule:nonzero;stroke:none"
         id="path48" /><path
         d="m 80.5625,1343.1 44.6995,44.7 -15.235,15.38 -44.777,-44.77 -21.5898,-21.59 15.3125,-15.32 21.5898,21.6"
         style="fill:#2f2c7e;fill-opacity:1;fill-rule:nonzero;stroke:none"
         id="path50" /><path
         d="m 110.027,1403.18 15.235,-15.38 44.472,-44.94 21.481,-21.69 15.39,15.23 -21.476,21.7 -44.551,45.01 -15.234,15.39 -44.4729,44.93 -21.4766,21.7 -15.3906,-15.24 21.4766,-21.7 44.5465,-45.01"
         style="fill:#2f2c7e;fill-opacity:1;fill-rule:nonzero;stroke:none"
         id="path52" /><path
         d="m 526.684,681.297 -44.778,-44.777 -21.59,-21.59 15.313,-15.313 21.59,21.59 44.699,44.699 -15.234,15.391"
         style="fill:#2f2c7e;fill-opacity:1;fill-rule:nonzero;stroke:none"
         id="path54" /><path
         d="m 541.996,696.613 15.234,-15.39 44.778,44.777 21.59,21.59 -15.313,15.312 -21.59,-21.589 -44.699,-44.7"
         style="fill:#2f2c7e;fill-opacity:1;fill-rule:nonzero;stroke:none"
         id="path56" /><path
         d="m 482.133,726.301 44.551,-45.004 15.234,-15.391 44.473,-44.929 21.476,-21.696 15.395,15.239 -21.481,21.695 -44.551,45.008 -15.234,15.39 -44.469,44.926 -21.48,21.699 L 460.656,748 482.133,726.301"
         style="fill:#2f2c7e;fill-opacity:1;fill-rule:nonzero;stroke:none"
         id="path58" /><path
         d="m 414.23,1122.28 4.149,-4.15 -4.125,4.17 z"
         style="fill:#5dc695;fill-opacity:1;fill-rule:nonzero;stroke:none"
         id="path60" /><path
         d="m 495.781,1203.83 -66.215,-66.22 15.227,-15.37 -15.336,-15.19 0.086,-0.08 76.703,76.7 23.981,23.98 -15.313,15.31 -19.133,-19.13"
         style="fill:#5dc695;fill-opacity:1;fill-rule:nonzero;stroke:none"
         id="path62" /><path
         d="m 375.863,1161.08 38.391,-38.78 4.125,-4.17 11.023,-11.13 0.055,0.05 15.336,15.19 -15.227,15.37 -38.312,38.71 -15.391,-15.24"
         style="fill:#5dc695;fill-opacity:1;fill-rule:nonzero;stroke:none"
         id="path64" /><path
         d="m 903.891,881.336 -23.832,-23.828 c 1.574,-6.035 2.496,-12.332 2.496,-18.856 0,-41.355 -33.645,-75 -75,-75 -41.356,0 -75,33.645 -75,75 0,41.356 33.644,75 75,75 26.562,0 49.886,-13.922 63.215,-34.808 l 17.808,17.804 z m -96.336,82.617 c -69.203,0 -125.301,-56.098 -125.301,-125.301 0,-62.097 45.219,-113.507 104.496,-123.437 5.445,-0.91 11,-1.473 16.66,-1.656 1.387,-0.047 2.746,-0.211 4.145,-0.211 35.461,0 67.414,14.793 90.207,38.465 4.949,5.14 9.519,10.648 13.543,16.574 13.597,20.039 21.554,44.222 21.554,70.265 0,69.203 -56.101,125.301 -125.304,125.301"
         style="fill:#5dc695;fill-opacity:1;fill-rule:nonzero;stroke:none"
         id="path66" /><path
         d="m 787.895,795.969 4.148,-4.149 -4.125,4.168 z"
         style="fill:#5dc695;fill-opacity:1;fill-rule:nonzero;stroke:none"
         id="path68" /><path
         d="m 870.77,878.844 -67.54,-67.539 15.227,-15.379 -15.336,-15.184 0.09,-0.086 76.848,76.852 23.832,23.828 -15.313,15.312 -17.808,-17.804"
         style="fill:#5dc695;fill-opacity:1;fill-rule:nonzero;stroke:none"
         id="path70" /><path
         d="m 764.918,850.004 -15.391,-15.238 38.391,-38.778 4.125,-4.168 11.023,-11.132 0.055,0.054 15.336,15.184 -15.227,15.379 -38.312,38.699"
         style="fill:#5dc695;fill-opacity:1;fill-rule:nonzero;stroke:none"
         id="path72" /></g></g></svg>
