<?xml version="1.0" encoding="UTF-8" standalone="no"?>
<!-- Created with Inkscape (http://www.inkscape.org/) -->

<svg
   version="1.1"
   id="svg2"
   width="155"
   height="155"
   viewBox="0 0 155 155"
   sodipodi:docname="Boolean Systems.ai"
   inkscape:export-filename="../../Downloads/favicon.svg"
   inkscape:export-xdpi="20.360001"
   inkscape:export-ydpi="20.360001"
   xmlns:inkscape="http://www.inkscape.org/namespaces/inkscape"
   xmlns:sodipodi="http://sodipodi.sourceforge.net/DTD/sodipodi-0.dtd"
   xmlns="http://www.w3.org/2000/svg"
   xmlns:svg="http://www.w3.org/2000/svg">
  <defs
     id="defs6">
    <clipPath
       clipPathUnits="userSpaceOnUse"
       id="clipPath18">
      <path
         d="M 0,500 H 700 V 0 H 0 Z"
         id="path16" />
    </clipPath>
  </defs>
  <sodipodi:namedview
     id="namedview4"
     pagecolor="#ffffff"
     bordercolor="#000000"
     borderopacity="0.25"
     inkscape:showpageshadow="2"
     inkscape:pageopacity="0.0"
     inkscape:pagecheckerboard="0"
     inkscape:deskcolor="#d1d1d1"
     showgrid="false" />
  <g
     id="g10"
     inkscape:groupmode="layer"
     inkscape:label="Page 1"
     transform="matrix(1.3333333,0,0,-1.3333333,-398.82086,407.22029)">
    <g
       
         id="g14"
         clip-path="url(#clipPath18)"
         transform="translate(209.72576,-22.411531)">
        <g
           id="g20"
           transform="translate(173.2004,227.1059)">
          <path
             d="m 0,0 c -3.673,-2.555 -8.13,-3.905 -12.889,-3.905 h -43.277 v 61.43 h 14.964 c -0.647,1.512 -1.007,3.176 -1.007,4.925 0,1.783 0.377,3.475 1.048,5.011 h -24.941 v -81.303 h 53.213 c 6.797,0 13.217,1.966 18.565,5.686 9.496,6.609 13.38,17.108 10.936,29.562 l -0.008,0.05 c -0.008,0.057 -0.018,0.129 -0.028,0.197 -2.28,-2.367 -5.475,-3.846 -9.021,-3.846 -0.14,0 -0.276,0.016 -0.414,0.021 C 8.258,9.96 5.916,4.114 0,0"
             style="fill:#02e1ab;fill-opacity:1;fill-rule:nonzero;stroke:none"
             id="path22" />
        </g>
        <g
           id="g24"
           transform="translate(149.3769,307.7458)">
          <path
             d="m 0,0 c 7.933,-2.595 13.212,-9.88 13.212,-18.147 0,-8.116 -5.135,-15.334 -12.796,-18.015 l -0.109,-0.097 -0.209,-0.003 c -1.305,-0.347 -2.74,-0.562 -4.128,-0.77 l -1.15,-0.175 c -5.56,-0.884 -11.11,-2.624 -14.008,-9.309 -2.062,-4.749 -2.019,-10.216 0.117,-15 2.141,-4.79 6.181,-8.473 11.085,-10.103 0.311,-0.105 1.145,-0.332 1.864,-0.523 -1.009,1.806 -1.589,3.884 -1.589,6.1 0,1.68 0.336,3.28 0.935,4.744 -0.048,0.019 -0.083,0.041 -0.122,0.067 -1.181,0.781 -2.457,2.33 -3.102,3.767 -1.017,2.282 -1.043,4.765 -0.074,6.993 1.015,2.343 2.431,2.848 7.519,3.614 1.609,0.242 3.433,0.515 5.259,1.008 10.291,2.779 18.669,11.603 20.373,21.459 C 25.86,-8.316 18.978,0.457 12.715,4.987 7.813,8.531 1.915,10.404 -4.34,10.404 h -20.734 c 0.482,-1.331 0.758,-2.76 0.758,-4.258 0,-2.046 -0.501,-3.972 -1.37,-5.678 H -4.34 C -2.847,0.468 -1.387,0.311 0,0"
             style="fill:#290188;fill-opacity:1;fill-rule:nonzero;stroke:none"
             id="path26" />
        </g>
        <g
           id="g80"
           transform="translate(104.3661,307.2594)">
          <path
             d="M 0,0 2.159,2.159 C 1.225,3.41 0.664,4.955 0.664,6.633 c 0,1.691 0.57,3.248 1.518,4.504 l -2.148,2.17 1.54,1.524 2.147,-2.17 c 1.246,0.921 2.779,1.472 4.443,1.472 1.678,0 3.223,-0.561 4.474,-1.495 l 2.159,2.159 1.531,-1.531 -2.159,-2.159 c 0.935,-1.251 1.495,-2.796 1.495,-4.474 0,-1.691 -0.569,-3.249 -1.517,-4.505 l 2.147,-2.169 -1.539,-1.524 -2.147,2.17 c -1.246,-0.921 -2.78,-1.472 -4.444,-1.472 -1.677,0 -3.223,0.561 -4.474,1.495 L 1.531,-1.531 Z m 18.333,-0.669 c 0.37,0.514 0.702,1.055 0.991,1.624 0.87,1.706 1.371,3.632 1.371,5.678 0,1.497 -0.276,2.927 -0.758,4.258 -0.203,0.559 -0.434,1.105 -0.711,1.624 -2.107,3.954 -6.268,6.648 -11.062,6.648 -6.92,0 -12.53,-5.61 -12.53,-12.53 0,-6.92 5.61,-12.53 12.53,-12.53 4.193,0 7.894,2.066 10.169,5.228"
             style="fill:#290188;fill-opacity:1;fill-rule:nonzero;stroke:none"
             id="path82" />
        </g>
        <g
           id="g84"
           transform="translate(153.0225,294.3425)">
          <path
             d="m 0,0 -2.398,-2.398 c 0.254,-0.751 0.397,-1.553 0.397,-2.389 0,-4.135 -3.365,-7.5 -7.5,-7.5 -4.136,0 -7.5,3.365 -7.5,7.5 0,4.136 3.364,7.5 7.5,7.5 2.489,0 4.692,-1.223 6.057,-3.095 l 1.913,1.913 z m -20.983,0.224 c -0.671,-1.535 -1.049,-3.228 -1.049,-5.011 0,-1.749 0.361,-3.413 1.008,-4.925 0.243,-0.566 0.535,-1.104 0.855,-1.624 2.205,-3.584 6.152,-5.981 10.668,-5.981 6.92,0 12.53,5.61 12.53,12.53 0,6.921 -5.61,12.531 -12.53,12.531 -4.481,0 -8.401,-2.359 -10.616,-5.896 -0.325,-0.518 -0.618,-1.058 -0.866,-1.624"
             style="fill:#02e1ab;fill-opacity:1;fill-rule:nonzero;stroke:none"
             id="path86" />
        </g>
        <g
           id="g88"
           transform="translate(146.0655,248.3778)">
          <path
             d="m 0,0 1.539,1.524 2.148,-2.17 c 1.246,0.92 2.779,1.472 4.443,1.472 1.678,0 3.223,-0.561 4.474,-1.495 L 14.763,1.49 16.294,-0.041 14.135,-2.2 c 0.935,-1.251 1.495,-2.797 1.495,-4.474 0,-1.692 -0.569,-3.249 -1.517,-4.505 l 2.148,-2.169 -1.54,-1.524 -2.147,2.17 c -1.246,-0.921 -2.78,-1.472 -4.444,-1.472 -1.677,0 -3.223,0.56 -4.474,1.495 l -2.159,-2.159 -1.531,1.531 2.159,2.159 c -0.934,1.251 -1.495,2.796 -1.495,4.474 0,1.691 0.57,3.248 1.518,4.504 z m -3.464,-1.93 c -0.6,-1.464 -0.936,-3.064 -0.936,-4.744 0,-2.216 0.58,-4.294 1.589,-6.1 0.369,-0.66 0.791,-1.286 1.269,-1.866 2.298,-2.787 5.777,-4.565 9.672,-4.565 6.921,0 12.531,5.61 12.531,12.531 0,6.92 -5.61,12.53 -12.531,12.53 -4.632,0 -8.668,-2.521 -10.836,-6.259 -0.285,-0.49 -0.541,-0.998 -0.758,-1.527"
             style="fill:#290188;fill-opacity:1;fill-rule:nonzero;stroke:none"
             id="path90" />
        </g>
        <g
           id="g92"
           transform="translate(112.5344,315.4277)">
          <path
             d="M 0,0 1.523,-1.539 6.001,2.939 8.16,5.098 6.629,6.629 4.47,4.47 Z"
             style="fill:#290188;fill-opacity:1;fill-rule:nonzero;stroke:none"
             id="path94" />
        </g>
        <g
           id="g96"
           transform="translate(108.0563,307.8872)">
          <path
             d="M 0,0 4.47,4.47 2.947,6.009 -1.531,1.531 -3.69,-0.628 -2.159,-2.159 Z"
             style="fill:#290188;fill-opacity:1;fill-rule:nonzero;stroke:none"
             id="path98" />
        </g>
        <g
           id="g100"
           transform="translate(111.0029,313.8962)">
          <path
             d="m 0,0 1.523,-1.539 4.448,-4.493 2.147,-2.17 1.54,1.524 -2.148,2.17 -4.455,4.5 -1.524,1.539 -4.447,4.493 -2.147,2.17 -1.539,-1.524 2.147,-2.169 z"
             style="fill:#290188;fill-opacity:1;fill-rule:nonzero;stroke:none"
             id="path102" />
        </g>
        <g
           id="g104"
           transform="translate(152.6683,241.7074)">
          <path
             d="m 0,0 -4.478,-4.478 -2.159,-2.159 1.532,-1.531 2.158,2.159 4.47,4.47 z"
             style="fill:#290188;fill-opacity:1;fill-rule:nonzero;stroke:none"
             id="path106" />
        </g>
        <g
           id="g108"
           transform="translate(154.1998,243.2389)">
          <path
             d="M 0,0 1.523,-1.539 6.001,2.939 8.16,5.098 6.629,6.629 4.47,4.47 Z"
             style="fill:#290188;fill-opacity:1;fill-rule:nonzero;stroke:none"
             id="path110" />
        </g>
        <g
           id="g112"
           transform="translate(148.2134,246.2079)">
          <path
             d="m 0,0 4.455,-4.5 1.523,-1.539 4.448,-4.494 2.148,-2.169 1.539,1.524 -2.148,2.169 L 7.51,-4.508 5.986,-2.969 1.539,1.524 -0.609,3.694 -2.148,2.17 Z"
             style="fill:#290188;fill-opacity:1;fill-rule:nonzero;stroke:none"
             id="path114" />
        </g>
        <g
           id="g116"
           transform="translate(141.4232,285.8056)">
          <path
             d="M 0,0 0.415,-0.415 0.002,0.002 Z"
             style="fill:#02e1ab;fill-opacity:1;fill-rule:nonzero;stroke:none"
             id="path118" />
        </g>
        <g
           id="g120"
           transform="translate(149.5783,293.9608)">
          <path
             d="m 0,0 -6.622,-6.622 1.523,-1.537 -1.534,-1.519 0.009,-0.008 7.67,7.67 2.398,2.398 -1.531,1.531 z"
             style="fill:#02e1ab;fill-opacity:1;fill-rule:nonzero;stroke:none"
             id="path122" />
        </g>
        <g
           id="g124"
           transform="translate(137.5862,289.6854)">
          <path
             d="m 0,0 3.839,-3.878 0.413,-0.416 1.102,-1.114 0.005,0.006 1.534,1.518 -1.522,1.538 -3.832,3.87 z"
             style="fill:#02e1ab;fill-opacity:1;fill-rule:nonzero;stroke:none"
             id="path126" />
        </g>
        <g
           id="g128"
           transform="translate(190.3889,261.7114)">
          <path
             d="m 0,0 -2.383,-2.383 c 0.157,-0.604 0.25,-1.233 0.25,-1.885 0,-4.136 -3.365,-7.5 -7.5,-7.5 -4.136,0 -7.5,3.364 -7.5,7.5 0,4.135 3.364,7.5 7.5,7.5 2.656,0 4.988,-1.392 6.321,-3.481 l 1.781,1.78 z m -9.633,8.262 c -6.921,0 -12.531,-5.61 -12.531,-12.53 0,-6.21 4.522,-11.351 10.45,-12.344 0.545,-0.091 1.1,-0.147 1.666,-0.166 0.139,-0.004 0.275,-0.021 0.415,-0.021 3.546,0 6.741,1.479 9.02,3.847 0.495,0.514 0.952,1.064 1.354,1.657 1.36,2.004 2.156,4.422 2.156,7.027 0,6.92 -5.61,12.53 -12.53,12.53"
             style="fill:#02e1ab;fill-opacity:1;fill-rule:nonzero;stroke:none"
             id="path130" />
        </g>
        <g
           id="g132"
           transform="translate(178.7897,253.1745)">
          <path
             d="M 0,0 0.415,-0.415 0.002,0.002 Z"
             style="fill:#02e1ab;fill-opacity:1;fill-rule:nonzero;stroke:none"
             id="path134" />
        </g>
        <g
           id="g136"
           transform="translate(187.0771,261.4619)">
          <path
             d="m 0,0 -6.754,-6.754 1.523,-1.538 -1.534,-1.518 0.009,-0.009 7.685,7.686 2.383,2.382 -1.531,1.532 z"
             style="fill:#02e1ab;fill-opacity:1;fill-rule:nonzero;stroke:none"
             id="path138" />
        </g>
        <g
           id="g140"
           transform="translate(176.4918,258.5781)">
          <path
             d="M 0,0 -1.539,-1.524 2.3,-5.402 2.713,-5.818 3.815,-6.932 3.82,-6.926 5.354,-5.408 3.831,-3.87 Z"
             style="fill:#02e1ab;fill-opacity:1;fill-rule:nonzero;stroke:none"
             id="path142" />
        </g>
      </g>

  </g>
</svg>